<?xml version="1.0" encoding="utf-8"?>
<svg xmlns="http://www.w3.org/2000/svg" viewBox="0 0 900 560" role="img" aria-labelledby="title desc">
  <title id="title">Moto custom de destaque</title>
  <desc id="desc">Ilustração realista em estilo custom cruiser com rodas grandes, tanque alongado e acabamento escuro com detalhes vermelhos.</desc>
  <defs>
    <linearGradient id="bg" x1="0" y1="0" x2="1" y2="1">
      <stop offset="0" stop-color="#202634"/>
      <stop offset="1" stop-color="#0f1115"/>
    </linearGradient>
    <linearGradient id="metal" x1="0" y1="0" x2="0" y2="1">
      <stop offset="0" stop-color="#f4f7fb"/>
      <stop offset="1" stop-color="#aab4c2"/>
    </linearGradient>
    <linearGradient id="accent" x1="0" y1="0" x2="1" y2="1">
      <stop offset="0" stop-color="#e63a2e"/>
      <stop offset="1" stop-color="#ff6b57"/>
    </linearGradient>
    <filter id="shadow" x="-20%" y="-20%" width="140%" height="140%">
      <feDropShadow dx="0" dy="14" stdDeviation="18" flood-color="#000" flood-opacity="0.45"/>
    </filter>
  </defs>
  <rect width="900" height="560" rx="38" fill="url(#bg)"/>
  <ellipse cx="450" cy="442" rx="300" ry="50" fill="#000" opacity="0.28"/>
  <g filter="url(#shadow)">
    <circle cx="238" cy="386" r="86" fill="#161b24" stroke="#d8dee9" stroke-width="14"/>
    <circle cx="238" cy="386" r="48" fill="none" stroke="#7f8a99" stroke-width="8" opacity="0.75"/>
    <circle cx="622" cy="386" r="86" fill="#161b24" stroke="#d8dee9" stroke-width="14"/>
    <circle cx="622" cy="386" r="48" fill="none" stroke="#7f8a99" stroke-width="8" opacity="0.75"/>
    <path d="M222 358h72l44-88h110l72 62h126" fill="none" stroke="#edf2f7" stroke-width="16" stroke-linecap="round" stroke-linejoin="round"/>
    <path d="M402 272h116l54 44" fill="none" stroke="url(#accent)" stroke-width="16" stroke-linecap="round" stroke-linejoin="round"/>
    <path d="M332 226h124l50 124" fill="none" stroke="#edf2f7" stroke-width="14" stroke-linecap="round" stroke-linejoin="round" opacity="0.9"/>
    <path d="M470 200h70l28 46" fill="none" stroke="#edf2f7" stroke-width="12" stroke-linecap="round" stroke-linejoin="round" opacity="0.92"/>
    <path d="M500 158h120c18 0 32 14 32 32v14h-126z" fill="url(#accent)"/>
    <path d="M544 174c0-18 14-34 32-34h24" fill="none" stroke="url(#metal)" stroke-width="10" stroke-linecap="round"/>
    <path d="M612 208h74c18 0 34 16 34 34v26" fill="none" stroke="url(#metal)" stroke-width="12" stroke-linecap="round"/>
    <path d="M288 350h128" stroke="#6d7786" stroke-width="10" stroke-linecap="round"/>
    <path d="M352 260h42" stroke="#6d7786" stroke-width="10" stroke-linecap="round"/>
    <path d="M510 260h78" stroke="#6d7786" stroke-width="10" stroke-linecap="round"/>
    <path d="M338 314h50" stroke="#6d7786" stroke-width="10" stroke-linecap="round"/>
    <path d="M580 320l58 46" stroke="#6d7786" stroke-width="10" stroke-linecap="round"/>
    <path d="M154 314h64" stroke="#6d7786" stroke-width="10" stroke-linecap="round"/>
    <circle cx="238" cy="386" r="20" fill="#edf2f7"/>
    <circle cx="622" cy="386" r="20" fill="#edf2f7"/>
  </g>
  <g>
    <rect x="88" y="92" width="260" height="28" rx="14" fill="url(#accent)" opacity="0.8"/>
    <text x="88" y="180" fill="#f3f6fb" font-family="Inter, Arial, sans-serif" font-size="54" font-weight="800" style="white-space: pre;">Custom Cruiser</text>
  </g>
</svg>