<svg xmlns="http://www.w3.org/2000/svg" viewBox="0 0 800 500" role="img" aria-labelledby="title desc">
  <title id="title">Street Black</title>
  <desc id="desc">Moto custom urbana em perfil lateral com tanque compacto, guidão baixo e linhas escuras inspiradas em uma cruiser real.</desc>
  <defs>
    <linearGradient id="bg" x1="0" y1="0" x2="1" y2="1">
      <stop offset="0%" stop-color="#181d27"/>
      <stop offset="100%" stop-color="#10131a"/>
    </linearGradient>
    <linearGradient id="accent" x1="0" y1="0" x2="1" y2="1">
      <stop offset="0%" stop-color="#e63a2e"/>
      <stop offset="100%" stop-color="#ff6b57"/>
    </linearGradient>
  </defs>
  <rect width="800" height="500" rx="30" fill="url(#bg)"/>
  <ellipse cx="400" cy="402" rx="236" ry="38" fill="#000" opacity="0.28"/>
  <circle cx="228" cy="348" r="78" fill="#161b24" stroke="#d8dee9" stroke-width="12"/>
  <circle cx="228" cy="348" r="40" fill="none" stroke="#7f8a99" stroke-width="7"/>
  <circle cx="556" cy="348" r="78" fill="#161b24" stroke="#d8dee9" stroke-width="12"/>
  <circle cx="556" cy="348" r="40" fill="none" stroke="#7f8a99" stroke-width="7"/>

  <path d="M214 324h62l36-72h88l52 48h104" fill="none" stroke="#edf2f7" stroke-width="14" stroke-linecap="round" stroke-linejoin="round"/>
  <path d="M356 252h90l48 50" fill="none" stroke="url(#accent)" stroke-width="14" stroke-linecap="round" stroke-linejoin="round"/>
  <path d="M312 204h112l42 96" fill="none" stroke="#edf2f7" stroke-width="12" stroke-linecap="round" stroke-linejoin="round" opacity="0.92"/>
  <path d="M454 180h82l24 38" fill="none" stroke="#edf2f7" stroke-width="10" stroke-linecap="round" stroke-linejoin="round" opacity="0.92"/>
  <path d="M486 144h112c16 0 30 14 30 30v14h-118z" fill="#212636"/>
  <path d="M520 160h54" stroke="url(#accent)" stroke-width="10" stroke-linecap="round"/>
  <path d="M594 196h62c18 0 32 14 32 32v20" fill="none" stroke="#edf2f7" stroke-width="10" stroke-linecap="round"/>
  <path d="M396 304h118" stroke="#6d7786" stroke-width="8" stroke-linecap="round"/>
  <path d="M318 240h46" stroke="#6d7786" stroke-width="8" stroke-linecap="round"/>

  <text x="34" y="70" fill="#f3f6fb" font-family="Inter, Arial, sans-serif" font-size="30" font-weight="800">Street Black</text>
  <text x="34" y="104" fill="#b3bccb" font-family="Inter, Arial, sans-serif" font-size="18">Urban cruiser</text>
</svg>
