<svg xmlns="http://www.w3.org/2000/svg" viewBox="0 0 800 500" role="img" aria-labelledby="title desc">
  <title id="title">Iron Road</title>
  <desc id="desc">Moto custom de estrada em perfil lateral com tanque robusto, escape alongado e presença de tourer clássica.</desc>
  <defs>
    <linearGradient id="bg" x1="0" y1="0" x2="1" y2="1">
      <stop offset="0%" stop-color="#181d27"/>
      <stop offset="100%" stop-color="#10131a"/>
    </linearGradient>
    <linearGradient id="accent" x1="0" y1="0" x2="1" y2="1">
      <stop offset="0%" stop-color="#e63a2e"/>
      <stop offset="100%" stop-color="#ff6b57"/>
    </linearGradient>
  </defs>
  <rect width="800" height="500" rx="30" fill="url(#bg)"/>
  <ellipse cx="400" cy="402" rx="242" ry="38" fill="#000" opacity="0.28"/>
  <circle cx="220" cy="348" r="78" fill="#161b24" stroke="#d8dee9" stroke-width="12"/>
  <circle cx="220" cy="348" r="40" fill="none" stroke="#7f8a99" stroke-width="7"/>
  <circle cx="560" cy="348" r="78" fill="#161b24" stroke="#d8dee9" stroke-width="12"/>
  <circle cx="560" cy="348" r="40" fill="none" stroke="#7f8a99" stroke-width="7"/>

  <path d="M206 322h70l34-70h94l62 52h96" fill="none" stroke="#edf2f7" stroke-width="14" stroke-linecap="round" stroke-linejoin="round"/>
  <path d="M372 252h100l56 52" fill="none" stroke="#edf2f7" stroke-width="12" stroke-linecap="round" stroke-linejoin="round" opacity="0.92"/>
  <path d="M316 208h118l48 94" fill="none" stroke="url(#accent)" stroke-width="12" stroke-linecap="round" stroke-linejoin="round"/>
  <path d="M468 184h90l26 40" fill="none" stroke="#edf2f7" stroke-width="10" stroke-linecap="round" stroke-linejoin="round"/>
  <path d="M506 146h120c18 0 32 14 32 32v14h-124z" fill="#212636"/>
  <path d="M540 162h52" stroke="url(#accent)" stroke-width="10" stroke-linecap="round"/>
  <path d="M612 204h78c18 0 34 16 34 34v18" fill="none" stroke="#edf2f7" stroke-width="10" stroke-linecap="round"/>
  <path d="M390 304h128" stroke="#6d7786" stroke-width="8" stroke-linecap="round"/>
  <path d="M328 242h40" stroke="#6d7786" stroke-width="8" stroke-linecap="round"/>
  <path d="M470 314l74 0" stroke="#6d7786" stroke-width="8" stroke-linecap="round"/>

  <text x="34" y="70" fill="#f3f6fb" font-family="Inter, Arial, sans-serif" font-size="30" font-weight="800">Iron Road</text>
  <text x="34" y="104" fill="#b3bccb" font-family="Inter, Arial, sans-serif" font-size="18">Road touring custom</text>
</svg>
